<?xml version="1.0" standalone="no"?>
<!DOCTYPE svg PUBLIC "-//W3C//DTD SVG 20010904//EN"
 "http://www.w3.org/TR/2001/REC-SVG-20010904/DTD/svg10.dtd">
<svg version="1.0" xmlns="http://www.w3.org/2000/svg"
 width="18.000000pt" height="16.000000pt" viewBox="0 0 18.000000 16.000000"
 preserveAspectRatio="xMidYMid meet">

<g transform="translate(0.000000,16.000000) scale(0.100000,-0.100000)"
fill="#000000" stroke="none">
<path d="M0 120 c0 -38 2 -40 30 -40 28 0 30 2 30 40 0 38 -2 40 -30 40 -28 0
-30 -2 -30 -40z m50 0 c0 -23 -4 -30 -20 -30 -16 0 -20 7 -20 30 0 23 4 30 20
30 16 0 20 -7 20 -30z"/>
<path d="M70 120 c0 -38 2 -40 30 -40 28 0 30 2 30 40 0 38 -2 40 -30 40 -28
0 -30 -2 -30 -40z m50 -10 c0 -13 -7 -20 -20 -20 -22 0 -28 25 -7 33 22 10 27
7 27 -13z"/>
<path d="M140 120 c0 -35 3 -40 23 -39 16 1 18 2 5 6 -12 3 -18 14 -18 33 0
19 6 30 18 33 13 4 11 5 -5 6 -20 1 -23 -4 -23 -39z"/>
<path d="M0 35 l0 -35 22 22 22 22 7 -24 c6 -21 7 -19 8 13 1 35 -1 37 -29 37
-28 0 -30 -3 -30 -35z"/>
<path d="M72 33 c1 -37 1 -37 5 -5 6 45 40 45 46 0 4 -32 4 -32 5 5 2 35 0 37
-28 37 -28 0 -30 -2 -28 -37z"/>
<path d="M142 33 c1 -37 1 -37 5 -6 3 19 11 34 21 36 12 3 10 5 -5 6 -20 1
-23 -3 -21 -36z"/>
</g>
</svg>
